<svg xmlns="http://www.w3.org/2000/svg" viewBox="0 0 960 600" role="img" aria-labelledby="title desc">
  <title id="title">Addon-s HR and CRM app preview</title>
  <desc id="desc">A premium enterprise HR and CRM mobile application preview for Addon-s.</desc>
  <defs>
    <linearGradient id="bg" x1="0" x2="1" y1="0" y2="1">
      <stop offset="0" stop-color="#020617"/>
      <stop offset=".5" stop-color="#0f172a"/>
      <stop offset="1" stop-color="#111827"/>
    </linearGradient>
    <linearGradient id="accent" x1="0" x2="1" y1="0" y2="1">
      <stop offset="0" stop-color="#2563eb"/>
      <stop offset=".5" stop-color="#0ea5e9"/>
      <stop offset="1" stop-color="#7c3aed"/>
    </linearGradient>
    <filter id="shadow" x="-20%" y="-20%" width="140%" height="140%">
      <feDropShadow dx="0" dy="28" stdDeviation="24" flood-color="#000814" flood-opacity=".48"/>
    </filter>
  </defs>
  <rect width="960" height="600" fill="url(#bg)"/>
  <circle cx="162" cy="470" r="210" fill="#2563eb" opacity=".18"/>
  <circle cx="810" cy="120" r="190" fill="#0ea5e9" opacity=".2"/>
  <g opacity=".13" stroke="#94a3b8">
    <path d="M0 120h960M0 240h960M0 360h960M0 480h960"/>
    <path d="M160 0v600M320 0v600M480 0v600M640 0v600M800 0v600"/>
  </g>
  <g filter="url(#shadow)">
    <rect x="126" y="72" width="708" height="456" rx="44" fill="#0f172a" stroke="#334155" stroke-width="2"/>
    <rect x="180" y="126" width="202" height="348" rx="34" fill="#020617" stroke="#38bdf8" stroke-opacity=".5" stroke-width="3"/>
    <rect x="206" y="158" width="150" height="78" rx="24" fill="url(#accent)"/>
    <rect x="222" y="284" width="118" height="34" rx="15" fill="#111827" stroke="#1e293b"/>
    <rect x="222" y="344" width="118" height="34" rx="15" fill="#111827" stroke="#1e293b"/>
    <rect x="222" y="404" width="86" height="32" rx="14" fill="#2563eb"/>
    <rect x="440" y="126" width="316" height="78" rx="24" fill="url(#accent)"/>
    <rect x="440" y="242" width="138" height="112" rx="24" fill="#111827" stroke="#1e293b"/>
    <rect x="618" y="242" width="138" height="112" rx="24" fill="#111827" stroke="#1e293b"/>
    <rect x="440" y="396" width="316" height="54" rx="18" fill="#111827" stroke="#1e293b"/>
    <circle cx="509" cy="298" r="24" fill="#38bdf8"/>
    <circle cx="687" cy="298" r="24" fill="#7c3aed"/>
    <path d="M482 424h168" stroke="#94a3b8" stroke-width="14" stroke-linecap="round" opacity=".62"/>
  </g>
</svg>
